<?xml version="1.0" encoding="UTF-8"?>
<!-- Generator: Adobe Illustrator 27.1.0, SVG Export Plug-In . SVG Version: 6.00 Build 0)  -->
<svg version="1.1" id="Layer_2_00000102517724615545172730000009713313739383165118_" xmlns="http://www.w3.org/2000/svg" xmlns:xlink="http://www.w3.org/1999/xlink" x="0px" y="0px" viewBox="0 0 200 70" style="enable-background:new 0 0 200 70;" xml:space="preserve">
<style type="text/css">
	.st0{fill:url(#SVGID_1_);}
	.st1{fill:none;}
	.st2{fill:#0078D4;}
	.st3{fill:url(#SVGID_00000134232039145835500140000014424635451497408700_);}
	.st4{fill:url(#SVGID_00000036234598891910320160000010095536207994081153_);}
	.st5{fill:#333333;}
</style>
<g>
	<linearGradient id="SVGID_1_" gradientUnits="userSpaceOnUse" x1="52.3335" y1="51.4552" x2="61.6952" y2="23.4467">
		<stop offset="0" style="stop-color:#114A8B"/>
		<stop offset="1" style="stop-color:#0669BC"/>
	</linearGradient>
	<path class="st0" d="M47.7,20.5L38.1,49c-0.3,0.8,0.1,1.7,1,2c0.2,0.1,0.3,0.1,0.5,0.1h8c0.6-0.1,1.1-0.5,1.3-1.1l1.9-5.7l6.8,6.4   c0.3,0.2,0.7,0.4,1,0.4h8.9l-3.9-11.2H52.2l7-20.5h-10C48.5,19.4,47.9,19.8,47.7,20.5"/>
	<rect x="38" y="19.4" class="st1" width="33.6" height="31.7"/>
	<path class="st1" d="M49.2,19.4c-0.7,0-1.3,0.4-1.5,1.1L38.1,49c-0.3,0.8,0.2,1.7,1,2c0.2,0.1,0.3,0.1,0.5,0.1h7.8   c0.7,0,1.3-0.4,1.5-1.1l10.3-30.6L49.2,19.4L49.2,19.4z"/>
	<rect x="38" y="19.4" class="st1" width="33.6" height="31.7"/>
	<g>
		<g id="Group_1081_00000044162073136182560060000011125124328731486598_">
			<path id="Path_941_00000109746352627978919010000007176177696506202245_" class="st2" d="M63.7,39.9H47.9c-0.4,0-0.7,0.3-0.7,0.7     c0,0.2,0.1,0.4,0.2,0.5l10.1,9.5c0.3,0.3,0.7,0.4,1.1,0.4h8.9L63.7,39.9L63.7,39.9z"/>
		</g>
	</g>
	<g>
		<g id="Group_1081_00000019666923087528898050000001567044161675886770_">
			<path id="Path_941_00000139276464293244545450000012688553911111396772_" class="st2" d="M63.7,39.9H47.9c-0.4,0-0.7,0.3-0.7,0.7     c0,0.2,0.1,0.4,0.2,0.5l10.1,9.5c0.3,0.3,0.7,0.4,1.1,0.4h8.9L63.7,39.9L63.7,39.9z"/>
		</g>
	</g>
	
		<linearGradient id="SVGID_00000113336793727948865800000015805325685687122858_" gradientUnits="userSpaceOnUse" x1="40.7698" y1="-11.5814" x2="59.3062" y2="33.0093">
		<stop offset="0" style="stop-color:#3CCBF4"/>
		<stop offset="1" style="stop-color:#2892DF"/>
	</linearGradient>
	<path style="fill:url(#SVGID_00000113336793727948865800000015805325685687122858_);" d="M60.4,19.4H49.3c0.7,0,1.3,0.4,1.5,1.1   L60.5,49c0.3,0.8-0.2,1.7-1,2c-0.2,0-0.3,0.1-0.5,0.1h11.1c0.9,0,1.6-0.7,1.6-1.6c0-0.2,0-0.3-0.1-0.5l-9.6-28.5   C61.7,19.8,61.1,19.4,60.4,19.4L60.4,19.4"/>
	
		<linearGradient id="SVGID_00000147185387177757298790000002936773332978267537_" gradientUnits="userSpaceOnUse" x1="55.2631" y1="34.8573" x2="52.9318" y2="35.6479">
		<stop offset="0" style="stop-color:#000000;stop-opacity:0.3"/>
		<stop offset="1" style="stop-color:#000000;stop-opacity:0"/>
	</linearGradient>
	<path style="fill:url(#SVGID_00000147185387177757298790000002936773332978267537_);" d="M59.5,51c-0.1,0-0.2,0.1-0.4,0.1h-0.5   c-0.1,0-0.2,0-0.3,0c-0.3,0-0.5-0.2-0.8-0.3l-6.8-6.4l0,0v0L48.9,50c0,0.1,0,0.1-0.1,0.2c-0.2,0.4-0.6,0.7-1,0.8   c-0.1,0-0.1,0-0.2,0c0,0-0.1,0-0.1,0h-7.9c-0.2,0-0.4,0-0.5-0.1c-0.2-0.1-0.5-0.2-0.6-0.4c-0.1-0.1-0.1-0.1-0.1-0.2   c0-0.1-0.1-0.1-0.1-0.2c0-0.1-0.1-0.2-0.1-0.3c-0.1-0.3-0.1-0.6,0-1l9.6-28.5c0.1-0.2,0.1-0.3,0.2-0.4c0-0.1,0.1-0.1,0.2-0.2   c0.1-0.1,0.2-0.2,0.4-0.3c0.1,0,0.2-0.1,0.3-0.1c0.1,0,0.2,0,0.2,0h0.4c0.6,0,1.2,0.5,1.4,1.1l4,11.8v0l-2.6,7.6l0,0h5.2l3.1,9.1   C60.8,49.8,60.4,50.7,59.5,51z"/>
</g>
<path class="st2" d="M-130.3,51.1c0,0,0.1,0,0.1,0C-130.2,51.1-130.2,51.1-130.3,51.1L-130.3,51.1z"/>
<rect id="Rectangle_531" class="st1" width="200" height="70"/>
<path id="Path_21-2" class="st5" d="M101.8,45.7h-4l-2-5.5h-8.5l-1.9,5.5h-3.9l8.2-21.3h4.1L101.8,45.7L101.8,45.7L101.8,45.7z   M95,37.4c-1.9-5.9-3.2-9.2-3.4-9.8c-0.1,0.6-1,2.5-3.2,9.8H95z M115.9,31.9L107.5,43h8.3v2.7h-13.2v-1.3l8.6-11.3h-7.7v-2.7h12.5  V31.9L115.9,31.9L115.9,31.9z M132.3,45.7h-3.5v-2.4h-0.1c-0.9,1.8-2.8,2.8-4.8,2.8c-3.6,0-5.5-2.2-5.5-6.5v-9.1h3.6v8.7  c0,2.8,1,4.1,3.2,4.1c1,0,1.9-0.4,2.6-1.1c0.7-0.8,1.1-1.9,1-3v-8.8h3.6L132.3,45.7L132.3,45.7L132.3,45.7z M145.9,33.8  c-0.5-0.4-1.2-0.6-1.8-0.5c-1,0-2,0.5-2.6,1.4c-0.7,1.1-1.1,2.4-1,3.7v7.3h-3.5V30.4h3.5v3.1h0.1c0.3-1,0.8-1.8,1.6-2.5  c1.1-0.9,2.5-1.1,3.8-0.6L145.9,33.8L145.9,33.8L145.9,33.8z M161.6,39H151c0,1.2,0.4,2.4,1.3,3.3c1,0.8,2.2,1.2,3.5,1.1  c1.6,0,3.2-0.5,4.6-1.5v2.8c-1.7,1-3.7,1.4-5.6,1.3c-2,0.1-4-0.6-5.4-2.1c-1.4-1.6-2.1-3.7-1.9-5.8c-0.1-2.2,0.7-4.2,2.2-5.8  c1.4-1.5,3.3-2.3,5.3-2.2c1.9-0.1,3.7,0.6,4.9,2c1.2,1.6,1.8,3.5,1.7,5.5L161.6,39L161.6,39L161.6,39z M158.2,36.5  c0-1-0.3-2-0.9-2.9c-0.6-0.7-1.5-1.1-2.4-1c-1,0-1.9,0.4-2.6,1.1c-0.7,0.8-1.2,1.8-1.3,2.9L158.2,36.5L158.2,36.5z"/>
<path class="st1" d="M-138.1,51.1h7.9c0,0-0.1,0-0.1,0L-138.1,51.1c-0.2,0-0.4,0-0.5-0.1c-0.3-0.1-0.5-0.2-0.6-0.4  c0.2,0.2,0.4,0.3,0.6,0.4C-138.5,51-138.3,51.1-138.1,51.1z"/>
<path class="st1" d="M-129,50.2c-0.2,0.4-0.5,0.7-1,0.8C-129.5,50.9-129.2,50.6-129,50.2z"/>
</svg>