<?xml version="1.0" encoding="UTF-8"?>
<svg id="Layer_2" data-name="Layer 2" xmlns="http://www.w3.org/2000/svg" viewBox="0 0 200 70">
  <defs>
    <style>
      .cls-1 {
        fill: none;
      }

      .cls-2 {
        fill: #fbbc05;
      }

      .cls-3 {
        fill: #ea4335;
      }

      .cls-4 {
        fill: #333;
      }

      .cls-5 {
        fill: #4285f4;
      }

      .cls-6 {
        fill: #34a853;
      }
    </style>
  </defs>
  <g id="Layer_1-2" data-name="Layer 1">
    <g id="Group_1262" data-name="Group 1262">
      <rect id="Rectangle_529" data-name="Rectangle 529" class="cls-1" width="200" height="70"/>
      <g id="Group_148" data-name="Group 148">
        <path id="Path_21" data-name="Path 21" class="cls-4" d="m52.4,45.7c-2.87-.02-5.63-1.14-7.71-3.12-2.1-1.99-3.27-4.76-3.23-7.65,0-2.88,1.17-5.64,3.23-7.66,4.11-4.19,10.83-4.31,15.09-.27l-2.08,2.08c-1.42-1.37-3.33-2.12-5.3-2.08-2.08-.05-4.08.81-5.47,2.35-1.47,1.48-2.28,3.49-2.25,5.58-.03,2.05.78,4.03,2.24,5.47,3.02,2.98,7.86,3.03,10.94.11.93-1.01,1.49-2.3,1.59-3.66h-7.05v-2.96h9.9c.12.59.15,1.2.11,1.8.13,2.53-.78,5-2.52,6.83-1.91,2.11-4.65,3.27-7.49,3.17m23.02-2.02c-2.78,2.63-7.12,2.63-9.9,0-1.32-1.3-2.05-3.07-2.02-4.92-.06-1.85.68-3.65,2.03-4.92,2.78-2.63,7.12-2.63,9.9,0,1.32,1.3,2.05,3.07,2.02,4.92.05,1.85-.69,3.64-2.02,4.92m-7.71-1.91c1.41,1.51,3.77,1.59,5.28.19.06-.06.13-.12.19-.19.79-.82,1.2-1.93,1.15-3.06.05-1.13-.37-2.24-1.15-3.06-1.48-1.54-3.92-1.59-5.46-.11-.04.04-.08.08-.11.11-.79.82-1.2,1.93-1.15,3.06,0,1.14.46,2.24,1.26,3.06m22.91,1.92c-2.78,2.63-7.12,2.63-9.9,0-1.32-1.3-2.05-3.07-2.02-4.92-.06-1.86.67-3.65,2.02-4.92,2.78-2.63,7.12-2.63,9.9,0,1.32,1.3,2.05,3.07,2.02,4.92.05,1.85-.69,3.64-2.02,4.92m-7.77-1.91c1.48,1.54,3.92,1.59,5.46.11.04-.04.08-.08.11-.11.79-.82,1.2-1.93,1.15-3.06.05-1.13-.37-2.24-1.15-3.06-1.48-1.54-3.92-1.59-5.46-.11-.04.04-.08.08-.11.11-.79.82-1.2,1.93-1.15,3.06-.06,1.14.36,2.24,1.15,3.06m17.71,10.17c-1.4.1-2.78-.33-3.88-1.2-.95-.77-1.72-1.74-2.24-2.84l2.68-1.15c.28.69.73,1.29,1.31,1.75.6.53,1.39.79,2.19.71,1.01.09,2-.29,2.68-1.04.71-.85,1.05-1.96.93-3.06v-1.04h-.11c-.91,1.06-2.26,1.65-3.66,1.59-1.78,0-3.48-.73-4.7-2.02-2.7-2.7-2.7-7.08,0-9.79,1.2-1.33,2.91-2.09,4.7-2.08.76,0,1.52.18,2.19.55.6.22,1.11.62,1.48,1.15h.11v-1.15h2.84v12.41c.15,1.96-.5,3.89-1.8,5.36-1.22,1.27-2.94,1.95-4.7,1.86m.16-8.91c1,.01,1.96-.4,2.62-1.15.72-.81,1.1-1.87,1.04-2.95.02-1.11-.34-2.2-1.04-3.06-.66-.76-1.62-1.18-2.62-1.15-1.01,0-1.98.41-2.68,1.15-.79.82-1.2,1.93-1.15,3.06,0,1.09.41,2.15,1.15,2.95.7.73,1.67,1.14,2.68,1.15m11.54,2.24h-3.06v-20.4h3.06v20.4Zm8.37.44c-1.84.07-3.62-.67-4.87-2.02-1.3-1.31-2.02-3.08-2.02-4.92-.1-1.84.6-3.63,1.91-4.92,1.19-1.33,2.92-2.03,4.7-1.91.8.01,1.6.16,2.35.44.66.27,1.27.66,1.8,1.15.44.4.83.86,1.15,1.37.29.43.53.88.71,1.37l.33.77-9.3,3.83c.58,1.34,1.94,2.17,3.39,2.08,1.39,0,2.68-.72,3.39-1.91l2.35,1.59c-.58.85-1.35,1.57-2.24,2.08-1.12.64-2.38.99-3.66,1.04m-3.93-7.11l6.18-2.62c-.17-.45-.5-.82-.93-1.03-.49-.27-1.03-.42-1.59-.44-.96.03-1.86.44-2.52,1.15-.79.78-1.2,1.85-1.15,2.95"/>
        <path id="Path_22" data-name="Path 22" class="cls-4" d="m142.52,45.7c-2.61.06-5.12-.97-6.95-2.84-1.85-1.87-2.86-4.42-2.79-7.05-.08-2.64.93-5.19,2.79-7.05,1.85-1.83,4.35-2.85,6.95-2.84,2.66-.1,5.22,1.03,6.95,3.06l-1.64,1.8c-1.26-1.56-3.19-2.44-5.2-2.35-1.94-.02-3.8.73-5.2,2.08-1.41,1.47-2.16,3.44-2.08,5.48-.07,2.03.68,4,2.08,5.47,3.04,2.88,7.83,2.75,10.71-.28.1-.1.19-.21.28-.32l1.64,1.64c-.87,1.05-1.98,1.87-3.23,2.41-1.38.54-2.84.82-4.32.82"/>
        <rect id="Rectangle_51" data-name="Rectangle 51" class="cls-4" x="152.14" y="26.4" width="2.41" height="18.87"/>
        <path id="Path_23" data-name="Path 23" class="cls-4" d="m158.48,34c2.65-2.62,6.92-2.62,9.57,0,1.23,1.31,1.88,3.07,1.8,4.87.08,1.8-.57,3.55-1.8,4.87-2.65,2.62-6.92,2.62-9.57,0-1.23-1.31-1.88-3.07-1.8-4.87-.1-1.8.55-3.56,1.8-4.87m1.8,8.2c1.47,1.63,3.99,1.76,5.62.29.1-.09.2-.19.29-.29.86-.91,1.3-2.14,1.2-3.39.04-1.24-.39-2.45-1.2-3.39-1.47-1.63-3.99-1.76-5.62-.29-.1.09-.2.19-.29.29-.86.91-1.3,2.14-1.2,3.39-.11,1.25.33,2.49,1.2,3.39"/>
        <path id="Path_24" data-name="Path 24" class="cls-4" d="m183.2,45.27h-2.35v-1.8h-.11c-.44.68-1.04,1.24-1.75,1.64-.73.41-1.56.62-2.41.6-1.38.09-2.73-.45-3.66-1.48-.87-1.1-1.29-2.48-1.2-3.88v-7.93h2.41v7.44c0,2.41,1.04,3.55,3.23,3.55.94.01,1.83-.41,2.41-1.15.61-.8.94-1.78.93-2.79v-7.05h2.41l.11,12.85Z"/>
        <path id="Path_25" data-name="Path 25" class="cls-4" d="m191.46,45.7c-1.67,0-3.25-.74-4.32-2.02-1.18-1.34-1.82-3.08-1.8-4.87-.08-1.8.57-3.55,1.8-4.87,1.09-1.25,2.66-1.99,4.32-2.02.91-.02,1.81.18,2.62.6.73.34,1.34.9,1.75,1.59h.11l-.11-1.8v-5.91h2.41v18.81h-2.35v-1.8h-.11c-.99,1.41-2.6,2.26-4.32,2.3m.33-2.19c1.08.03,2.12-.41,2.84-1.2.78-.95,1.19-2.16,1.15-3.39.08-1.24-.33-2.46-1.15-3.39-1.4-1.6-3.84-1.76-5.44-.36-.13.11-.25.23-.36.36-.83.93-1.24,2.15-1.15,3.39-.08,1.24.33,2.46,1.15,3.39.8.76,1.85,1.19,2.95,1.2"/>
        <path id="Path_26" data-name="Path 26" class="cls-3" d="m22.38,25.91h.98l2.9-2.9.22-1.2c-5.46-4.8-13.77-4.28-18.59,1.15-1.32,1.52-2.3,3.31-2.84,5.25.31-.15.66-.17.98-.06l6.02-.49c.03-.33.14-.65.33-.93,2.59-2.88,6.98-3.24,10.01-.82"/>
        <path id="Path_27" data-name="Path 27" class="cls-5" d="m30.42,28.15c-.66-2.46-2.03-4.66-3.94-6.34l-4.1,4.1c1.73,1.4,2.72,3.52,2.68,5.74v.77c2.02,0,3.66,1.64,3.67,3.66,0,2.02-1.64,3.66-3.66,3.67h-7.28l-.77.77v4.32l.77.77h7.27c5.16.07,9.39-4.06,9.46-9.21,0-.05,0-.09,0-.14.2-3.24-1.37-6.33-4.1-8.09"/>
        <path id="Path_28" data-name="Path 28" class="cls-6" d="m10.46,45.54h7.33v-5.85l-7.33-.06c-.53.03-1.06-.08-1.53-.33l-.98.33-2.95,2.9-.22.98c1.61,1.31,3.62,2.02,5.69,2.02"/>
        <path id="Path_29" data-name="Path 29" class="cls-2" d="m10.46,26.51c-5.24.01-9.47,4.26-9.46,9.5,0,2.94,1.38,5.72,3.72,7.51l4.21-4.21c-1.83-.83-2.64-2.99-1.8-4.81s2.99-2.64,4.81-1.8c.81.35,1.45.99,1.8,1.8l4.21-4.21c-1.75-2.39-4.53-3.79-7.49-3.77"/>
      </g>
    </g>
  </g>
</svg>