<?xml version="1.0" encoding="UTF-8"?>
<svg id="Layer_2" data-name="Layer 2" xmlns="http://www.w3.org/2000/svg" viewBox="0 0 200 70">
  <defs>
    <style>
      .cls-1, .cls-2 {
        fill: none;
      }

      .cls-2 {
        stroke: #fff;
        stroke-miterlimit: 2.16;
        stroke-width: .02px;
      }

      .cls-3 {
        fill: #fff;
      }

      .cls-4 {
        fill: #326ce5;
      }

      .cls-5 {
        fill: #333;
      }
    </style>
  </defs>
  <g id="Layer_1-2" data-name="Layer 1">
    <g id="Group_1265" data-name="Group 1265">
      <rect id="Rectangle_534" data-name="Rectangle 534" class="cls-1" width="200" height="70"/>
      <g id="Group_145" data-name="Group 145">
        <path id="Path_42" data-name="Path 42" class="cls-4" d="m26.56,18.52c-.3.02-.59.09-.86.22l-11.6,5.54c-.6.29-1.05.84-1.2,1.49l-2.85,12.43c-.13.58-.02,1.2.31,1.7.04.06.08.12.13.18l8.03,9.98c.42.52,1.06.81,1.72.82h12.87c.67,0,1.31-.31,1.74-.83l8.02-9.98c.42-.52.58-1.21.42-1.87l-2.86-12.44c-.15-.65-.59-1.2-1.2-1.49l-11.6-5.53c-.34-.16-.7-.23-1.08-.22"/>
        <path id="Path_43" data-name="Path 43" class="cls-3" d="m26.68,22.76c-.4.02-.71.36-.69.76,0,0,0,0,0,0v.2c.02.22.05.44.09.66.06.42.08.84.07,1.26-.04.14-.12.26-.22.35v.3c-2.22.17-4.28,1.16-5.8,2.78l-.25-.18c-.14.04-.28.02-.41-.04-.34-.25-.65-.53-.93-.84-.14-.17-.3-.33-.46-.48l-.15-.12c-.14-.11-.31-.17-.48-.18-.21,0-.42.08-.56.25-.23.33-.16.79.16,1.03l.14.12c.19.12.38.24.58.34.37.2.72.45,1.04.72.08.12.13.26.14.4l.23.2c-1.23,1.84-1.73,4.07-1.42,6.26l-.3.08c-.07.12-.18.23-.3.3-.41.11-.82.17-1.24.2-.22,0-.44.02-.66.05l-.18.05h-.02c-.38.05-.65.4-.6.78.02.15.09.29.2.4.18.19.46.26.71.18h.01l.19-.02c.21-.06.42-.14.63-.22.39-.15.79-.27,1.2-.35.14.01.28.06.4.14l.31-.05c.68,2.1,2.1,3.88,4,5.01l-.13.27c.06.12.08.26.06.39-.17.4-.38.78-.63,1.13-.13.18-.26.37-.38.55l-.09.19c-.19.33-.08.76.25.96.13.07.28.1.43.1.26-.03.49-.2.58-.45l.08-.18c.08-.21.14-.42.2-.64.12-.44.3-.86.53-1.25.08-.08.19-.13.3-.14l.15-.28c2.06.79,4.34.8,6.4.01l.14.27c.14.02.27.1.35.21.2.37.35.76.47,1.17.06.22.12.43.2.64l.08.18c.13.36.54.55.9.41h0c.14-.05.26-.15.34-.27.15-.22.15-.51.01-.73l-.09-.19c-.12-.19-.24-.38-.38-.55-.24-.35-.44-.71-.61-1.1-.04-.14-.01-.29.07-.41-.04-.09-.08-.19-.12-.28,1.9-1.13,3.32-2.92,3.99-5.02l.3.05c.11-.1.25-.15.39-.14.41.08.81.2,1.2.35.2.1.41.18.63.24.05.01.12.02.18.04h.01c.36.12.75-.08.87-.45,0,0,0,0,0,0,.05-.15.05-.3,0-.45-.09-.25-.31-.43-.57-.46l-.2-.05c-.22-.03-.44-.05-.66-.05-.42-.02-.83-.09-1.24-.2-.13-.07-.23-.17-.3-.29l-.28-.08c.3-2.19-.22-4.41-1.44-6.25l.25-.22c-.01-.14.04-.28.13-.39.32-.27.66-.52,1.03-.72.2-.1.39-.22.58-.34l.15-.12c.33-.2.43-.63.23-.95,0,0,0,0,0,0-.09-.14-.22-.24-.37-.3-.25-.09-.53-.03-.72.17l-.15.12c-.17.15-.31.32-.46.48-.27.32-.58.61-.91.86-.13.06-.28.07-.42.05l-.26.19c-1.52-1.6-3.57-2.59-5.76-2.79,0-.1-.01-.26-.01-.31-.12-.08-.2-.2-.22-.34-.01-.42.01-.85.08-1.26.04-.22.08-.44.09-.66v-.26c.02-.4-.29-.74-.68-.77m-.87,5.37l-.2,3.64h-.01c-.01.34-.29.6-.63.59,0,0,0,0,0,0-.12,0-.24-.04-.33-.12l-2.99-2.11c.95-.93,2.14-1.58,3.44-1.88.25-.05.48-.08.73-.12m1.74,0c1.57.19,3.03.9,4.16,2.01l-2.95,2.1c-.26.21-.65.17-.86-.1-.08-.11-.13-.24-.13-.38l-.21-3.63Zm-7,3.37l2.73,2.43h0c.25.23.29.6.07.86,0,0,0,.01-.01.02-.08.09-.18.15-.3.19h0s-3.51,1.01-3.51,1.01c-.17-1.57.19-3.16,1.02-4.51m12.25,0c.83,1.35,1.19,2.93,1.04,4.51l-3.51-1.01h0c-.32-.1-.52-.43-.43-.76,0,0,0,0,0-.01.03-.12.1-.22.19-.3l2.7-2.43Zm-6.67,2.63h1.11l.68.86-.25,1.09-1,.48-1-.48-.24-1.09.69-.86Zm3.58,2.95h.14l3.61.61c-.53,1.5-1.55,2.78-2.89,3.64l-1.39-3.38c-.13-.31.02-.67.33-.8,0,0,0,0,0,0,.06-.02.13-.04.2-.06m-6.06.02c.34,0,.61.28.6.62,0,0,0,0,0,0,0,.08-.02.16-.05.24h0s-1.39,3.36-1.39,3.36c-1.33-.85-2.34-2.12-2.87-3.6l3.58-.61s.09-.01.13-.01m3.02,1.46c.23,0,.45.11.56.32h.01l1.76,3.19c-.24.08-.47.14-.71.2-1.3.29-2.66.23-3.92-.2l1.76-3.19c.12-.18.32-.3.54-.32"/>
        <path id="Path_44" data-name="Path 44" class="cls-2" d="m26.68,22.76c-.4.02-.71.36-.69.76,0,0,0,0,0,0v.2c.02.22.05.44.09.66.06.42.08.84.07,1.26-.04.14-.12.26-.22.35v.3c-2.22.17-4.28,1.16-5.8,2.78l-.25-.18c-.14.04-.28.02-.41-.04-.34-.25-.65-.53-.93-.84-.14-.17-.3-.33-.46-.48l-.15-.12c-.14-.11-.31-.17-.48-.18-.21,0-.42.08-.56.25-.23.33-.16.79.16,1.03l.14.12c.19.12.38.24.58.34.37.2.72.45,1.04.72.08.12.13.26.14.4l.23.2c-1.23,1.84-1.73,4.07-1.42,6.26l-.3.08c-.07.12-.18.23-.3.3-.41.11-.82.17-1.24.2-.22,0-.44.02-.66.05l-.18.05h-.02c-.38.05-.65.4-.6.78.02.15.09.29.2.4.18.19.46.26.71.18h.01l.19-.02c.21-.06.42-.14.63-.22.39-.15.79-.27,1.2-.35.14.01.28.06.4.14l.31-.05c.68,2.1,2.1,3.88,4,5.01l-.13.27c.06.12.08.26.06.39-.17.4-.38.78-.63,1.13-.13.18-.26.37-.38.55l-.09.19c-.19.33-.08.76.25.96.13.07.28.1.43.1.26-.03.49-.2.58-.45l.08-.18c.08-.21.14-.42.2-.64.12-.44.3-.86.53-1.25.08-.08.19-.13.3-.14l.15-.28c2.06.79,4.34.8,6.4.01l.14.27c.14.02.27.1.35.21.2.37.35.76.47,1.17.06.22.12.43.2.64l.08.18c.13.36.54.55.9.41h0c.14-.05.26-.15.34-.27.15-.22.15-.51.01-.73l-.09-.19c-.12-.19-.24-.38-.38-.55-.24-.35-.44-.71-.61-1.1-.04-.14-.01-.29.07-.41-.04-.09-.08-.19-.12-.28,1.9-1.13,3.32-2.92,3.99-5.02l.3.05c.11-.1.25-.15.39-.14.41.08.81.2,1.2.35.2.1.41.18.63.24.05.01.12.02.18.04h.01c.36.12.75-.08.87-.45,0,0,0,0,0,0,.05-.15.05-.3,0-.45-.09-.25-.31-.43-.57-.46l-.2-.05c-.22-.03-.44-.05-.66-.05-.42-.02-.83-.09-1.24-.2-.13-.07-.23-.17-.3-.29l-.28-.08c.3-2.19-.22-4.41-1.44-6.25l.25-.22c-.01-.14.04-.28.13-.39.32-.27.66-.52,1.03-.72.2-.1.39-.22.58-.34l.15-.12c.33-.2.43-.63.23-.95,0,0,0,0,0,0-.09-.14-.22-.24-.37-.3-.25-.09-.53-.03-.72.17l-.15.12c-.17.15-.31.32-.46.48-.27.32-.58.61-.91.86-.13.06-.28.07-.42.05l-.26.19c-1.52-1.6-3.57-2.59-5.76-2.79,0-.1-.01-.26-.01-.31-.12-.08-.2-.2-.22-.34-.01-.42.01-.85.08-1.26.04-.22.08-.44.09-.66v-.26c.02-.4-.28-.74-.68-.77Zm-.87,5.37l-.2,3.64h-.01c-.01.34-.29.6-.63.59,0,0,0,0,0,0-.12,0-.24-.04-.33-.12l-2.99-2.11c.95-.93,2.14-1.58,3.44-1.88.25-.05.48-.08.73-.12Zm1.74,0c1.57.19,3.03.9,4.16,2.01l-2.95,2.1c-.26.21-.65.17-.86-.1-.08-.11-.13-.24-.13-.38l-.21-3.63Zm-7,3.37l2.73,2.43h0c.25.23.29.6.07.86,0,0,0,.01-.01.02-.08.09-.18.15-.3.19h0s-3.51,1.01-3.51,1.01c-.16-1.57.19-3.16,1.02-4.51h0Zm12.25,0c.83,1.35,1.19,2.93,1.04,4.51l-3.51-1.01h0c-.32-.1-.52-.43-.43-.76,0,0,0,0,0-.01.03-.12.1-.22.19-.3l2.7-2.43Zm-6.67,2.63h1.11l.68.86-.25,1.09-1,.48-1-.48-.24-1.09.69-.86Zm3.58,2.95h.14l3.61.61c-.53,1.5-1.55,2.78-2.89,3.64l-1.4-3.39c-.13-.31.02-.67.33-.8,0,0,0,0,0,0,.06-.03.13-.04.2-.06h0Zm-6.06.02c.34,0,.61.28.6.62,0,0,0,0,0,0,0,.08-.02.16-.05.24h0s-1.39,3.37-1.39,3.37c-1.33-.85-2.34-2.12-2.87-3.6l3.58-.61s.08-.02.12-.01h0Zm3.02,1.46c.23,0,.45.11.56.32h.01l1.76,3.19c-.24.08-.47.14-.71.2-1.3.29-2.66.23-3.92-.2l1.76-3.19c.12-.18.32-.3.54-.32h0Z"/>
        <path id="Path_45" data-name="Path 45" class="cls-5" d="m54.08,35.84l1.2-1.31c.41-.46.81-.91,1.2-1.35l1.1-1.26c.34-.4.64-.76.89-1.05h4.68c-.93,1.08-1.84,2.09-2.73,3.06s-1.85,1.97-2.92,3.01c.58.53,1.12,1.1,1.63,1.7.57.66,1.1,1.33,1.63,2.03s1,1.4,1.45,2.11.8,1.35,1.11,1.93h-4.54c-.27-.46-.59-.97-.96-1.52-.37-.55-.74-1.1-1.13-1.64s-.84-1.07-1.28-1.6c-.41-.47-.85-.91-1.33-1.3v6.08h-3.93v-19.84l3.93-.64v11.58Zm22.9,8.42c-.85.23-1.71.42-2.59.54-1.1.17-2.21.25-3.32.25-1,.03-2-.13-2.94-.47-.73-.27-1.37-.73-1.85-1.33-.47-.6-.8-1.29-.98-2.03-.2-.86-.3-1.73-.28-2.61v-7.73h3.93v7.24c-.07.94.11,1.88.5,2.74.42.6,1.14.92,1.87.84.27,0,.57-.01.9-.04s.6-.06.84-.1v-10.7h3.93v13.4Zm16.59-6.46c.01,1.02-.15,2.04-.48,3.01-.3.86-.78,1.64-1.42,2.29-.64.65-1.41,1.15-2.27,1.46-.98.36-2.02.53-3.06.51-.47,0-.97-.02-1.49-.07-.52-.05-1.03-.1-1.54-.16s-.98-.15-1.44-.25-.86-.2-1.22-.31v-19.38l3.93-.64v6.92c.44-.19.9-.34,1.37-.45.5-.11,1.02-.16,1.54-.15.9-.02,1.79.15,2.61.51.74.33,1.39.83,1.9,1.46.53.68.92,1.45,1.16,2.28.28.96.41,1.96.4,2.96m-4-.11c0-2.53-.93-3.79-2.8-3.79-.4,0-.81.06-1.2.15-.34.09-.67.22-.97.4v7.13c.24.04.49.08.73.1.3.02.63.04.98.04.95.07,1.87-.35,2.44-1.11.58-.86.87-1.88.82-2.92m6.38.21c-.02-1.11.17-2.2.57-3.24.34-.86.84-1.64,1.49-2.3.6-.6,1.33-1.08,2.13-1.38.78-.32,1.62-.48,2.47-.47,1.74-.09,3.44.57,4.66,1.81,1.24,1.48,1.85,3.39,1.71,5.31,0,.22-.01.48-.02.76s-.04.51-.05.72h-8.92c.07.78.49,1.49,1.13,1.93.8.51,1.74.76,2.69.71.71,0,1.42-.07,2.13-.2.58-.1,1.15-.26,1.7-.48l.53,3.19c-.27.13-.55.24-.84.32-.38.11-.77.2-1.17.27-.44.08-.9.15-1.38.2s-.98.08-1.48.08c-1.11.02-2.22-.17-3.26-.55-.87-.33-1.65-.85-2.29-1.52-.61-.65-1.07-1.43-1.35-2.28-.32-.92-.47-1.89-.46-2.86m9.22-1.51c-.01-.33-.07-.66-.16-.98-.09-.31-.25-.59-.45-.84-.21-.25-.47-.46-.77-.6-.36-.17-.75-.25-1.15-.24-.39,0-.78.07-1.13.23-.3.14-.57.34-.79.59-.22.25-.38.55-.48.86-.12.32-.2.65-.25.99l5.18-.02Zm15.19-2.05c-.35-.08-.76-.18-1.22-.27-.51-.1-1.02-.15-1.54-.14-.3,0-.59.02-.88.07-.26.03-.52.08-.78.14v10.58h-3.93v-13.11c.82-.27,1.64-.51,2.47-.7,1.05-.23,2.12-.34,3.2-.33.21,0,.47.01.77.04s.6.06.9.11.6.09.9.17c.26.05.52.13.77.22l-.66,3.23Zm2.76-3c.85-.23,1.71-.42,2.59-.54,1.1-.17,2.21-.25,3.32-.25,1-.03,2.01.12,2.95.46.72.27,1.36.72,1.85,1.31.47.59.8,1.27.98,2.01.2.85.3,1.72.28,2.59v7.84h-3.92v-7.37c.07-.92-.1-1.85-.5-2.68-.44-.58-1.15-.88-1.87-.79-.27,0-.57.01-.9.04s-.6.06-.84.1v10.7h-3.94v-13.4Zm14.87,6.57c-.02-1.11.17-2.2.57-3.24.34-.86.84-1.64,1.49-2.3.6-.6,1.32-1.06,2.1-1.38.78-.32,1.62-.48,2.47-.47,1.74-.09,3.44.57,4.66,1.81,1.23,1.48,1.85,3.39,1.71,5.31,0,.22-.01.48-.02.76s-.04.51-.05.72h-8.92c.07.78.49,1.49,1.13,1.93.8.51,1.74.76,2.69.71.71,0,1.42-.07,2.13-.2.58-.1,1.15-.26,1.7-.48l.53,3.19c-.27.13-.55.24-.84.32-.38.11-.77.2-1.17.27-.44.08-.9.15-1.38.2s-.98.08-1.48.08c-1.11.02-2.22-.17-3.26-.55-.87-.33-1.65-.85-2.29-1.52-.61-.66-1.06-1.44-1.34-2.29-.31-.92-.46-1.88-.45-2.85m9.22-1.51c-.01-.33-.07-.66-.16-.98-.09-.31-.25-.59-.45-.84-.21-.25-.47-.46-.77-.6-.36-.17-.75-.25-1.15-.24-.39,0-.78.07-1.13.23-.3.14-.57.34-.79.59-.22.25-.38.55-.48.86-.12.32-.2.65-.25.99l5.18-.02Zm6.7-8.99l3.93-.64v4.07h4.72v3.25h-4.72v4.88c-.03.68.12,1.37.44,1.97.41.54,1.08.82,1.75.73.44,0,.88-.04,1.31-.12.42-.07.82-.18,1.22-.33l.55,3.06c-.51.21-1.04.37-1.58.5-.7.15-1.42.23-2.14.21-.91.03-1.81-.12-2.66-.44-.66-.25-1.24-.67-1.69-1.22-.44-.55-.74-1.2-.89-1.89-.18-.8-.26-1.62-.25-2.44v-11.6Zm10.73,10.5c-.02-1.11.17-2.2.57-3.24.34-.86.84-1.64,1.49-2.3.6-.61,1.33-1.08,2.13-1.38.78-.32,1.62-.48,2.47-.47,1.74-.09,3.44.57,4.66,1.81,1.23,1.48,1.85,3.38,1.71,5.3,0,.22-.01.48-.02.76s-.04.51-.05.72h-8.93c.07.78.49,1.49,1.13,1.93.8.51,1.74.76,2.69.71.71,0,1.42-.07,2.13-.2.58-.1,1.15-.26,1.7-.48l.53,3.19c-.27.13-.55.24-.84.32-.38.11-.77.2-1.17.27-.44.08-.9.15-1.38.2s-.98.08-1.48.08c-1.11.02-2.22-.16-3.26-.55-.87-.33-1.65-.85-2.29-1.52-.62-.65-1.08-1.43-1.36-2.28-.31-.92-.47-1.88-.45-2.85m9.23-1.51c-.01-.33-.07-.66-.16-.98-.09-.31-.25-.59-.45-.84-.21-.25-.47-.46-.77-.6-.36-.17-.75-.25-1.15-.24-.39,0-.78.07-1.13.23-.31.14-.59.34-.82.59-.22.25-.38.55-.48.86-.12.32-.2.65-.25.99h5.21v-.02Zm10.79,5.51c.52.04,1.04-.04,1.54-.21.31-.15.49-.48.45-.82-.04-.35-.26-.66-.58-.82-.57-.32-1.16-.59-1.77-.82-.57-.21-1.13-.45-1.68-.71-.47-.22-.9-.52-1.27-.88-.35-.35-.63-.76-.82-1.22-.21-.55-.3-1.13-.28-1.71-.05-1.2.5-2.35,1.45-3.08,1.16-.82,2.56-1.21,3.98-1.13.82,0,1.64.07,2.44.22.63.11,1.24.27,1.84.48l-.68,3.06c-.49-.16-.98-.3-1.49-.4-.59-.13-1.2-.19-1.81-.19-1.23,0-1.84.34-1.84,1.03,0,.14.03.27.08.4.07.15.18.27.32.35.21.14.42.26.65.37.34.16.69.31,1.04.44.74.26,1.45.58,2.14.95.49.26.95.6,1.33,1,.31.34.55.75.68,1.19.14.49.21,1.01.2,1.52.07,1.24-.52,2.41-1.55,3.11-1.32.77-2.83,1.14-4.36,1.06-1.03.02-2.06-.08-3.07-.32-.58-.13-1.15-.31-1.7-.53l.66-3.19c.67.26,1.35.47,2.05.61.67.16,1.35.23,2.03.22"/>
      </g>
    </g>
  </g>
</svg>